<?xml version="1.0"?>
<svg xmlns="http://www.w3.org/2000/svg" xmlns:xlink="http://www.w3.org/1999/xlink" xmlns:svgjs="http://svgjs.com/svgjs" version="1.1" width="512" height="512" x="0" y="0" viewBox="0 0 486 486.02973" style="enable-background:new 0 0 512 512" xml:space="preserve" class=""><g><path xmlns="http://www.w3.org/2000/svg" d="m207.015625 186c-43.621094.019531-82.515625-27.453125-97.085937-68.566406-14.570313-41.113282-1.652344-86.945313 32.242187-114.398438-40.996094 10.15625-71.636719 44.316406-77.296875 86.171875-5.660156 41.859375 14.8125 82.925781 51.640625 103.605469s82.550781 16.773438 115.339844-9.847656c-8.125 2.019531-16.46875 3.039062-24.839844 3.035156zm0 0" fill="#1d1d1c" data-original="#d4e1f4" style="" class=""/><path xmlns="http://www.w3.org/2000/svg" d="m267.015625 402.402344-1.238281-6h-218.761719c-3.867187 0-7-3.136719-7-7 0-47.816406 17.351563-91.886719 48.859375-124.101563 7.464844-7.636719 15.660156-14.527343 24.460938-20.574219-24.394532 8.238282-46.484376 22.144532-64.460938 40.578126-31.507812 32.210937-48.859375 76.28125-48.859375 124.101562 0 3.867188 3.132813 7 7 7h260c3.863281 0 7-3.132812 7-7s-3.136719-7-7-7zm0 0" fill="#1d1d1c" data-original="#d4e1f4" style="" class=""/><g xmlns="http://www.w3.org/2000/svg" fill="#0635c9"><path d="m64.015625 103c0 56.886719 46.113281 103 103 103 56.882813 0 103-46.113281 103-103s-46.117187-103-103-103c-56.859375.0664062-102.9375 46.140625-103 103zm192 0c0 49.152344-39.847656 89-89 89s-89-39.847656-89-89 39.847656-89 89-89c49.128906.054688 88.945313 39.871094 89 89zm0 0" fill="#ffffff" data-original="#0635c9" style="" class=""/><path d="m267.015625 402.402344h-252.867187c1.59375-41.414063 17.335937-79.300782 44.734374-107.308594 28.445313-29.078125 66.847657-45.09375 108.132813-45.09375 25.214844-.046875 50.050781 6.15625 72.28125 18.0625 2.203125 1.203125 4.878906 1.132812 7.019531-.179688 2.136719-1.3125 3.410156-3.667968 3.335938-6.175781-.078125-2.507812-1.488282-4.78125-3.703125-5.964843-24.273438-13.003907-51.394531-19.789063-78.933594-19.742188-45.082031 0-87.039063 17.511719-118.140625 49.304688-31.507812 32.210937-48.859375 76.28125-48.859375 124.101562 0 3.867188 3.132813 7 7 7h260c3.863281 0 7-3.132812 7-7s-3.136719-7-7-7zm0 0" fill="#ffffff" data-original="#0635c9" style="" class=""/><path d="m381.820312 267.972656c-.921874-2.90625-3.621093-4.878906-6.667968-4.878906h-31.730469l-9.765625-29.25c-.953125-2.859375-3.628906-4.785156-6.640625-4.785156s-5.6875 1.925781-6.640625 4.785156l-9.765625 29.25h-31.730469c-3.046875 0-5.746094 1.972656-6.671875 4.878906-.921875 2.90625.140625 6.074219 2.632813 7.835938l25.5 18.035156-9.71875 29.097656c-.957032 2.871094.039062 6.03125 2.46875 7.835938 2.429687 1.804687 5.742187 1.84375 8.214844.097656l25.707031-18.175781 25.707031 18.175781c2.472656 1.746094 5.785156 1.707031 8.214844-.097656 2.429687-1.804688 3.425781-4.964844 2.46875-7.835938l-9.71875-29.097656 25.5-18.035156c2.492187-1.757813 3.558594-4.929688 2.636718-7.835938zm-40.460937 17.441406c-2.519531 1.78125-3.574219 5.003907-2.597656 7.933594l4.597656 13.765625-12.296875-8.699219c-2.421875-1.710937-5.660156-1.710937-8.082031 0l-12.300781 8.699219 4.597656-13.765625c.980468-2.925781-.078125-6.148437-2.597656-7.933594l-11.765626-8.316406h14.746094c3.011719 0 5.6875-1.925781 6.640625-4.785156l4.722657-14.148438 4.71875 14.152344c.957031 2.855469 3.628906 4.78125 6.640624 4.78125h14.75zm0 0" fill="#ffffff" data-original="#0635c9" style="" class=""/></g><path xmlns="http://www.w3.org/2000/svg" d="m421.273438 283.546875c0-50.683594-42.285157-91.917969-94.257813-91.917969-51.976563 0-94.257813 41.234375-94.257813 91.917969.042969 24.773437 10.238282 48.449219 28.203126 65.503906v129.980469c.003906 2.78125 1.648437 5.300781 4.199218 6.414062 2.550782 1.113282 5.519532.609376 7.558594-1.28125l54.296875-50.292968 54.300781 50.292968c2.039063 1.890626 5.007813 2.394532 7.558594 1.28125 2.546875-1.113281 4.195312-3.632812 4.195312-6.414062v-129.980469c17.96875-17.058593 28.160157-40.730469 28.203126-65.503906zm-174.515626 0c0-42.964844 36-77.917969 80.257813-77.917969s80.257813 34.953125 80.257813 77.917969c-.054688 21.277344-8.953126 41.574219-24.570313 56.027344-.953125.527343-1.773437 1.265625-2.390625 2.160156-30.664062 26.304687-75.929688 26.304687-106.589844 0-.621094-.894531-1.441406-1.636719-2.398437-2.160156-15.613281-14.453125-24.511719-34.75-24.566407-56.027344zm132.308594 179.457031-47.296875-43.808594c-2.6875-2.484374-6.832031-2.484374-9.515625 0l-47.296875 43.808594v-102.867187c31.695313 20.433593 72.410157 20.433593 104.101563 0zm0 0" fill="#1ae5be" data-original="#1ae5be" style="" class=""/></g></svg>
