<?xml version="1.0"?>
<svg xmlns="http://www.w3.org/2000/svg" xmlns:xlink="http://www.w3.org/1999/xlink" xmlns:svgjs="http://svgjs.com/svgjs" version="1.1" width="512" height="512" x="0" y="0" viewBox="0 0 414 413" style="enable-background:new 0 0 512 512" xml:space="preserve" class=""><g><path xmlns="http://www.w3.org/2000/svg" d="m57.988281 267.558594v-98.433594l-22.589843-80.164062h-7.410157c-7.972656.011718-14.433593 6.472656-14.445312 14.445312v197.484375c.011719 7.972656 6.472656 14.433594 14.445312 14.445313h20.660157c2.425781-14.207032 11.261718-26.503907 23.953124-33.332032h-.164062c-7.976562-.007812-14.441406-6.46875-14.449219-14.445312zm0 0" fill="#1d1d1c" data-original="#d4e1f4" style="" class=""/><path xmlns="http://www.w3.org/2000/svg" d="m141.660156 315.335938h83.414063v-33.332032h-107.363281c12.6875 6.828125 21.523437 19.125 23.949218 33.332032zm0 0" fill="#1d1d1c" data-original="#d4e1f4" style="" class=""/><path xmlns="http://www.w3.org/2000/svg" d="m73.601562 282.003906h44.113282c-13.769532-7.410156-30.34375-7.410156-44.113282 0zm0 0" fill="#1d1d1c" data-original="#d4e1f4" style="" class=""/><path xmlns="http://www.w3.org/2000/svg" d="m56.898438 311.234375h-27.722657c-8.378906-.007813-15.167969-6.796875-15.175781-15.175781v-185.15625c.007812-8.378906 6.796875-15.167969 15.175781-15.175782h12.355469c3.863281 0 7-3.136718 7-7 0-3.867187-3.136719-7-7-7h-12.355469c-16.105469.015626-29.1562498 13.070313-29.175781 29.175782v185.15625c.0195312 16.105468 13.070312 29.160156 29.175781 29.175781h27.722657c3.867187 0 7-3.132813 7-7 0-3.863281-3.132813-7-7-7zm0 0" fill="#ffffff" data-original="#0635c9" style="" class=""/><path xmlns="http://www.w3.org/2000/svg" d="m413.972656 216.710938c-.007812-.109376-.019531-.214844-.03125-.324219-.015625-.105469-.035156-.234375-.054687-.351563-.023438-.117187-.042969-.222656-.066407-.332031-.023437-.109375-.054687-.222656-.085937-.332031s-.0625-.21875-.097656-.328125c-.039063-.109375-.078125-.214844-.117188-.320313-.042969-.105468-.085937-.210937-.132812-.3125-.046875-.105468-.097657-.207031-.148438-.308594-.046875-.101562-.101562-.203124-.160156-.300781-.058594-.101562-.113281-.195312-.175781-.289062-.058594-.09375-.128906-.199219-.199219-.300781-.070313-.097657-.128906-.171876-.195313-.257813-.066406-.085937-.15625-.203125-.242187-.292969-.035156-.042968-.070313-.089844-.109375-.132812l-57.121094-62.238282c-5.535156-6.015624-13.328125-9.441406-21.5-9.449218h-93.917968v-29.9375c-.019532-16.105469-13.070313-29.160156-29.175782-29.175782h-12.332031c-3.863281 0-7 3.132813-7 7 0 3.863282 3.136719 7 7 7h12.332031c8.378906.007813 15.167969 6.796876 15.175782 15.175782v200.332031h-91.105469c-3.867188 0-7 3.136719-7 7 0 3.867187 3.132812 7 7 7h155.230469c3.867187 0 7-3.132813 7-7 0-3.863281-3.132813-7-7-7h-50.125v-86.972656h160.382812v71.800781c-.007812 8.375-6.796875 15.164062-15.175781 15.175781h-17.464844c-3.867187 0-7 3.132813-7 7 0 3.863281 3.132813 7 7 7h17.464844c16.105469-.019531 29.160156-13.070312 29.175781-29.179687v-78.800782c0-.054687-.007812-.113281-.007812-.171874-.003907-.125-.011719-.25-.019532-.375zm-174.355468-61.871094h93.921874c4.25.007812 8.304688 1.789062 11.179688 4.914062l46.355469 50.507813h-151.457031zm0 0" fill="#ffffff" data-original="#0635c9" style="" class=""/><g xmlns="http://www.w3.org/2000/svg" fill="#1ae5be"><path d="m95.699219 364.042969c-25.296875 0-45.808594-20.507813-45.808594-45.808594s20.511719-45.808594 45.808594-45.808594c25.300781 0 45.808593 20.511719 45.808593 45.808594-.027343 25.289063-20.519531 45.78125-45.808593 45.808594zm0-77.617188c-17.566407 0-31.808594 14.242188-31.808594 31.808594s14.242187 31.808594 31.808594 31.808594c17.566406 0 31.808593-14.242188 31.808593-31.808594-.019531-17.558594-14.25-31.789063-31.808593-31.808594zm0 0" fill="#1ae5be" data-original="#1ae5be" style=""/><path d="m328.550781 364.042969c-25.296875 0-45.808593-20.507813-45.808593-45.808594.003906-25.300781 20.511718-45.808594 45.808593-45.808594 25.300781 0 45.808594 20.511719 45.808594 45.808594-.027344 25.289063-20.519531 45.78125-45.808594 45.808594zm0-77.617188c-17.566406 0-31.804687 14.242188-31.808593 31.808594 0 17.566406 14.242187 31.808594 31.808593 31.808594 17.566407 0 31.808594-14.242188 31.808594-31.808594-.019531-17.558594-14.25-31.789063-31.808594-31.808594zm0 0" fill="#1ae5be" data-original="#1ae5be" style=""/><path d="m200.507812 43.148438-78.492187-41.824219c-2.085937-1.113281-4.585937-1.097657-6.65625.039062l-76.320313 41.824219c-2.242187 1.230469-3.636718 3.582031-3.636718 6.140625v54.632813c.046875 46.136718 27.382812 87.878906 69.660156 106.363281l10.589844 4.617187c1.777344.773438 3.792968.777344 5.574218.011719l11.921876-5.152344c43.054687-18.085937 71.0625-60.230469 71.066406-106.929687v-53.542969c0-2.589844-1.425782-4.964844-3.707032-6.179687zm-10.292968 59.722656c-.011719 41.082031-24.660156 78.148437-62.539063 94.042968l-.050781.019532-9.160156 3.957031-7.800782-3.398437c-37.175781-16.253907-61.21875-52.960938-61.265624-93.53125v-50.488282l69.367187-38.015625 71.445313 38.070313zm0 0" fill="#1ae5be" data-original="#1ae5be" style=""/><path d="m92.28125 99.414062c-2.511719-2.941406-6.929688-3.289062-9.871094-.777343-2.9375 2.511719-3.285156 6.929687-.777344 9.867187l20.640626 24.175782c2.46875 2.890624 6.792968 3.28125 9.742187.882812l48.074219-39.109375c2.980468-2.445313 3.421875-6.839844.988281-9.832031-2.429687-2.988282-6.824219-3.449219-9.824219-1.027344l-42.769531 34.796875zm0 0" fill="#1ae5be" data-original="#1ae5be" style=""/></g></g></svg>
